<svg width="496" height="82" viewBox="0 0 496 82" fill="none" xmlns="http://www.w3.org/2000/svg">
<path d="M311.03 80.5753H318.685V19.8387H311.03V80.5753Z" fill="black"/>
<path d="M456.898 80.5753H464.553V68.3855L468.636 64.0533L472.718 59.7635L474.292 61.9721C475.142 63.2038 478.247 67.9183 481.181 72.378L486.455 80.5753H491.047C494.62 80.5753 495.555 80.4479 495.343 80.0231C495.13 79.7683 491.388 74.0769 486.965 67.4086C482.499 60.7404 478.8 54.964 478.715 54.5818C478.587 54.1146 480.926 51.3538 486.114 45.9597C490.282 41.6275 493.769 37.8473 493.812 37.635C493.897 37.4226 492.196 37.2527 489.729 37.2527H485.476L475.015 47.9135L464.553 58.5318V19.8387H456.898V80.5753Z" fill="black"/>
<path d="M294.317 21.1129C291.765 23.1516 291.893 27.5688 294.572 29.1828C299.633 32.2834 304.608 25.6576 300.398 21.4527C298.867 19.9662 296.018 19.7963 294.317 21.1129Z" fill="black"/>
<path d="M224.827 24.1285C223.849 24.5957 222.786 25.4027 222.446 25.9124C222.148 26.4221 217.895 35.8086 213.005 46.8092C208.157 57.8097 202.798 69.8721 201.097 73.6522L197.993 80.5753H206.328L209.22 73.7796L212.154 66.9839H242.434L248.302 80.5753H252.47C254.724 80.5753 256.595 80.4054 256.595 80.2355C256.595 80.0232 254.554 75.3086 252.087 69.7022C249.621 64.1382 244.347 52.2033 240.392 43.199C236.395 34.1947 232.865 26.3796 232.525 25.8699C231.802 24.8081 228.867 23.2791 227.464 23.2366C226.996 23.2366 225.805 23.6189 224.827 24.1285ZM233.375 46.0022C236.607 53.3925 239.159 59.5086 239.031 59.5936C238.946 59.6785 233.588 59.721 227.124 59.6785L215.429 59.5511L221.17 46.0447C224.36 38.6543 227.081 32.5807 227.251 32.5807C227.421 32.5807 230.186 38.6119 233.375 46.0022Z" fill="black"/>
<path d="M371.844 30.457H390.13V80.5753H398.211V30.457H416.497V23.2366H371.844V30.457Z" fill="black"/>
<path d="M248.09 37.5076C248.09 37.635 251.704 47.0215 256.127 58.4043C260.593 69.7871 264.335 79.4285 264.463 79.8108C264.718 80.4904 265.356 80.5753 268.885 80.5753H272.968L281.176 59.4237C285.684 47.8285 289.341 38.0597 289.341 37.7624C289.341 37.3377 288.448 37.2527 285.641 37.3377L281.984 37.4651L269.141 72.9726L268.46 71.3586C268.12 70.4667 265.143 62.4393 261.911 53.4775L256.042 37.2527H252.045C249.876 37.2527 248.09 37.3801 248.09 37.5076Z" fill="black"/>
<path d="M293.594 80.5753H301.249L301.164 59.0414L301.036 37.4651L293.594 37.2103V80.5753Z" fill="black"/>
<path d="M338.417 38.1022C335.483 38.8667 331.656 40.6081 329.232 42.2221L328.083 42.9866L329.572 45.3226C330.38 46.5968 331.23 47.7011 331.443 47.7861C331.613 47.871 332.549 47.4888 333.442 46.9366C338.375 43.8785 344.159 42.8592 349.177 44.1334C353.047 45.0678 355.683 48.7629 355.683 53.2651V55.0065L346.242 55.1764C338.46 55.3463 336.376 55.5162 334.633 56.1533C328.466 58.4043 325.829 61.9296 325.787 67.8758C325.744 73.3974 328.253 77.2199 333.569 79.6834C335.696 80.7027 336.376 80.7877 341.224 80.7877C347.646 80.7452 350.41 79.8533 353.642 76.8377L355.683 74.9264V80.5753H363.338V65.7097C363.338 56.3656 363.168 50.0371 362.871 48.6355C361.68 43.0291 358.065 39.4189 352.069 37.8474C348.964 36.9979 342.075 37.1253 338.417 38.1022ZM355.683 63.2038C355.683 67.8759 353.642 71.1463 349.432 73.185C346.625 74.5866 341.394 75.0538 338.29 74.2043C333.059 72.8027 331.06 65.9646 334.973 62.9914C337.057 61.4199 338.885 61.1226 347.731 61.0802L355.683 61.0377V63.2038Z" fill="black"/>
<path d="M423.769 37.9323C418.156 39.4189 413.095 43.6237 410.586 48.8479C408.885 52.3732 408.46 54.5393 408.417 59.1264C408.417 65.9221 410.458 71.1038 414.754 75.1812C419.304 79.5135 424.407 81.2549 431.594 80.8726C437.633 80.5328 442.141 78.8764 445.841 75.5635L447.755 73.8646L445.671 71.6984L443.587 69.5748L442.056 70.8065C441.206 71.4861 439.377 72.5904 437.974 73.2275C435.677 74.2893 434.997 74.4167 430.744 74.4167C425.343 74.4167 423.387 73.6947 420.282 70.7215C418.454 68.9377 416.497 65.2425 416.37 63.2887L416.285 62.0995L433.211 61.9721L450.094 61.8871V58.1495C450.094 47.6162 445.033 40.1834 436.272 37.8898C433.125 37.0828 426.831 37.0828 423.769 37.9323ZM436.315 44.8129C440.228 46.8092 442.566 50.1221 443.119 54.3269L443.417 56.3656H415.944L416.242 54.6242C416.923 50.4194 421.005 45.535 424.96 44.2608C427.852 43.3264 434.061 43.6237 436.315 44.8129Z" fill="black"/>
<path fill-rule="evenodd" clip-rule="evenodd" d="M134.006 7.02211C129.642 -1.71151 117.37 -1.66331 113.071 7.10306L99.1474 35.5027L89.5283 16.1404L89.527 16.1379C85.1635 7.40467 72.8915 7.45264 68.5928 16.2177L68.5923 16.2189L56.9088 39.8778L49.1316 24.3123C48.094 22.2356 46.5952 20.6417 44.8506 19.5498V9.39326H36.9959V17.9122C33.4281 18.4308 30.0563 20.6007 28.1968 24.3932L0.197998 81.5H170.805L134.009 7.02751L134.007 7.02306L134.006 7.02211ZM131.141 8.4685C127.965 2.11629 119.074 2.15081 115.947 8.52948L111.825 16.9356L141.6 78.2752H165.631L131.142 8.46994L131.141 8.4685ZM38.6124 21.0153C35.6096 21.0408 32.6341 22.6337 31.0721 25.8196L5.3537 78.2752H37.9471L55.1253 43.4894L46.2671 25.7605C45.3712 23.9674 44.0387 22.7008 42.5237 21.9294L41.6447 21.4818V12.6181H40.2018V21.0018L38.6124 21.0153ZM86.662 17.585C83.4868 11.232 74.5951 11.2663 71.4675 17.6452L71.4669 17.6465L58.7091 43.481L76.0939 78.2752H78.1765L97.3673 39.1335L86.662 17.585ZM100.947 39.124L120.397 78.2752H138.032L110.033 20.5921L100.947 39.124ZM99.1664 42.7548L81.7511 78.2752H116.813L99.1664 42.7548ZM56.9256 47.0926L41.5268 78.2752H72.5059L56.9256 47.0926Z" fill="black"/>
</svg>
