<svg width="495" height="79" viewBox="0 0 495 79" fill="none" xmlns="http://www.w3.org/2000/svg">
<path d="M310.03 78.5753H317.685V17.8387H310.03V78.5753Z" fill="#005C30"/>
<path d="M455.898 78.5753H463.553V66.3855L467.636 62.0532L471.718 57.7634L473.292 59.972C474.142 61.2038 477.247 65.9183 480.181 70.378L485.454 78.5753H490.047C493.62 78.5753 494.555 78.4478 494.343 78.0231C494.13 77.7683 490.388 72.0769 485.965 65.4086C481.499 58.7403 477.8 52.964 477.715 52.5817C477.587 52.1145 479.926 49.3538 485.114 43.9597C489.282 39.6274 492.769 35.8473 492.812 35.6349C492.897 35.4226 491.196 35.2527 488.729 35.2527H484.476L474.015 45.9134L463.553 56.5317V17.8387H455.898V78.5753Z" fill="#005C30"/>
<path d="M293.317 19.1129C290.765 21.1516 290.893 25.5688 293.572 27.1828C298.633 30.2833 303.608 23.6575 299.398 19.4527C297.867 17.9661 295.018 17.7962 293.317 19.1129Z" fill="#005C30"/>
<path d="M223.827 22.1285C222.849 22.5957 221.786 23.4027 221.446 23.9124C221.148 24.422 216.895 33.8086 212.005 44.8091C207.157 55.8097 201.798 67.872 200.097 71.6522L196.993 78.5753H205.328L208.22 71.7796L211.154 64.9839H241.434L247.302 78.5753H251.47C253.724 78.5753 255.595 78.4054 255.595 78.2355C255.595 78.0231 253.554 73.3086 251.087 67.7022C248.621 62.1382 243.347 50.2032 239.392 41.1989C235.395 32.1946 231.865 24.3796 231.525 23.8699C230.802 22.8081 227.867 21.279 226.464 21.2366C225.996 21.2366 224.805 21.6188 223.827 22.1285ZM232.375 44.0022C235.607 51.3925 238.159 57.5086 238.031 57.5936C237.946 57.6785 232.588 57.721 226.124 57.6785L214.429 57.5511L220.17 44.0446C223.36 36.6543 226.081 30.5806 226.251 30.5806C226.421 30.5806 229.186 36.6118 232.375 44.0022Z" fill="#005C30"/>
<path d="M370.844 28.457H389.13V78.5753H397.211V28.457H415.497V21.2366H370.844V28.457Z" fill="#005C30"/>
<path d="M247.09 35.5075C247.09 35.6349 250.704 45.0215 255.127 56.4043C259.593 67.7871 263.335 77.4285 263.463 77.8108C263.718 78.4903 264.356 78.5753 267.885 78.5753H271.968L280.176 57.4237C284.684 45.8285 288.341 36.0597 288.341 35.7624C288.341 35.3376 287.448 35.2527 284.641 35.3376L280.984 35.4651L268.141 70.9726L267.46 69.3586C267.12 68.4667 264.143 60.4392 260.911 51.4774L255.042 35.2527H251.045C248.876 35.2527 247.09 35.3801 247.09 35.5075Z" fill="#005C30"/>
<path d="M292.594 78.5753H300.249L300.164 57.0414L300.036 35.4651L292.594 35.2102V78.5753Z" fill="#005C30"/>
<path d="M337.417 36.1022C334.483 36.8667 330.656 38.6081 328.232 40.222L327.083 40.9866L328.572 43.3226C329.38 44.5968 330.23 45.7011 330.443 45.786C330.613 45.871 331.549 45.4887 332.442 44.9366C337.375 41.8785 343.159 40.8591 348.177 42.1333C352.047 43.0678 354.683 46.7629 354.683 51.2651V53.0065L345.242 53.1764C337.46 53.3462 335.376 53.5161 333.632 54.1532C327.466 56.4043 324.829 59.9296 324.787 65.8758C324.744 71.3973 327.253 75.2199 332.569 77.6833C334.696 78.7027 335.376 78.7876 340.224 78.7876C346.646 78.7452 349.41 77.8532 352.642 74.8376L354.683 72.9264V78.5753H362.338V63.7097C362.338 54.3656 362.168 48.0371 361.871 46.6355C360.68 41.029 357.065 37.4188 351.069 35.8473C347.964 34.9979 341.075 35.1253 337.417 36.1022ZM354.683 61.2038C354.683 65.8758 352.642 69.1462 348.432 71.185C345.625 72.5866 340.394 73.0538 337.29 72.2043C332.059 70.8027 330.06 63.9645 333.973 60.9914C336.057 59.4199 337.885 59.1226 346.731 59.0801L354.683 59.0376V61.2038Z" fill="#005C30"/>
<path d="M422.769 35.9323C417.156 37.4188 412.095 41.6237 409.586 46.8479C407.885 50.3731 407.46 52.5393 407.417 57.1264C407.417 63.922 409.458 69.1038 413.754 73.1812C418.304 77.5134 423.407 79.2548 430.594 78.8726C436.633 78.5328 441.141 76.8763 444.841 73.5634L446.755 71.8645L444.671 69.6984L442.587 67.5747L441.056 68.8065C440.206 69.486 438.377 70.5903 436.974 71.2274C434.677 72.2893 433.997 72.4167 429.744 72.4167C424.343 72.4167 422.387 71.6946 419.282 68.7215C417.454 66.9376 415.497 63.2425 415.37 61.2887L415.285 60.0995L432.21 59.972L449.094 59.8871V56.1495C449.094 45.6161 444.033 38.1833 435.272 35.8898C432.125 35.0828 425.831 35.0828 422.769 35.9323ZM435.315 42.8129C439.227 44.8091 441.566 48.122 442.119 52.3269L442.417 54.3656H414.944L415.242 52.6242C415.923 48.4194 420.005 43.535 423.96 42.2608C426.852 41.3263 433.061 41.6237 435.315 42.8129Z" fill="#005C30"/>
<path d="M27.4362 23.3561L0 79H25.9785L36.5934 57.4408V17.5628C32.9515 17.5935 29.3243 19.5269 27.4362 23.3561Z" fill="#00911E"/>
<path d="M36.5934 57.4408L41.3422 47.7959V18.6678C39.8597 17.9172 38.2251 17.549 36.5934 17.5628V57.4408Z" fill="#00911E"/>
<path d="M41.3422 9.03332H36.5934V17.5628C38.2251 17.549 39.8597 17.9172 41.3422 18.6678V9.03332Z" fill="#00911E"/>
<path d="M49.6882 30.8448L45.8896 23.285C44.8148 21.1459 43.1976 19.6073 41.3422 18.6678V47.7959L49.6882 30.8448Z" fill="#00911E"/>
<path d="M36.9426 79L55.3057 42.0243L49.6882 30.8448L41.3422 47.7959L36.5934 57.4408L25.9785 79H36.9426Z" fill="#005C30"/>
<path d="M73.8851 79H78.0403L98.4537 37.5993L92.3901 25.4627L69.8721 71.0135L73.8851 79Z" fill="#005C30"/>
<path d="M65.924 79H73.8851L69.8721 71.0135L65.924 79Z" fill="#005C30"/>
<path d="M36.9426 79H65.924L69.8721 71.0135L55.3057 42.0243L36.9426 79Z" fill="#00C700"/>
<path d="M169 79L132.589 5.72251C128.739 -1.9401 117.929 -1.89842 114.136 5.79367L109.571 15.053L140.787 79H169Z" fill="#00C700"/>
<path d="M87.1537 14.9818C83.3034 7.31921 72.4931 7.3609 68.7004 15.053L55.3057 42.0243L69.8721 71.0135L92.3901 25.4627L87.1537 14.9818Z" fill="#93DA33"/>
<path d="M119.138 79H140.787L109.571 15.053L98.4537 37.5993L119.138 79Z" fill="#93DA33"/>
<path d="M78.0403 79H119.138L98.4537 37.5993L78.0403 79Z" fill="#00C700"/>
</svg>
